<?xml version="1.0" encoding="utf-8"?>
<!-- Generator: Adobe Illustrator 16.0.0, SVG Export Plug-In . SVG Version: 6.00 Build 0)  -->
<!DOCTYPE svg PUBLIC "-//W3C//DTD SVG 1.1//EN" "http://www.w3.org/Graphics/SVG/1.1/DTD/svg11.dtd">
<svg version="1.1" id="Capa_1" xmlns="http://www.w3.org/2000/svg" xmlns:xlink="http://www.w3.org/1999/xlink" x="0px" y="0px"
	 width="200px" height="200px" viewBox="0 0 200 200" enable-background="new 0 0 200 200" xml:space="preserve">
<path fill="none" stroke="#9D9D9C" stroke-width="8" stroke-miterlimit="10" d="M165.26,74.635c0,0-39.679-59.969-97.844-26.152
	c0,0-53.206,24.348-27.054,90.63c0,0,12.175,27.506,40.13,33.818"/>
<polyline fill="none" stroke="#9D9D9C" stroke-width="8" stroke-miterlimit="10" points="34.944,89.157 87.796,94.581 
	71.451,129.449 "/>
<line fill="none" stroke="#9D9D9C" stroke-width="8" stroke-miterlimit="10" x1="95.642" y1="113.541" x2="74.469" y2="123.012"/>
<line fill="none" stroke="#9D9D9C" stroke-width="8" stroke-miterlimit="10" x1="102.834" y1="126.834" x2="74.469" y2="124.438"/>
<line fill="none" stroke="#9D9D9C" stroke-width="8" stroke-miterlimit="10" x1="87.796" y1="145.141" x2="72.541" y2="124.438"/>
<line fill="none" stroke="#9D9D9C" stroke-width="8" stroke-miterlimit="10" x1="158.48" y1="66.161" x2="167.996" y2="56.661"/>
<line fill="none" stroke="#9D9D9C" stroke-width="8" stroke-miterlimit="10" x1="147.969" y1="56.024" x2="156.664" y2="43.367"/>
<line fill="none" stroke="#9D9D9C" stroke-width="8" stroke-miterlimit="10" x1="136.582" y1="47.921" x2="141.408" y2="33.124"/>
<line fill="none" stroke="#9D9D9C" stroke-width="8" stroke-miterlimit="10" x1="124.082" y1="40.522" x2="125.281" y2="27.022"/>
<line fill="none" stroke="#9D9D9C" stroke-width="8" stroke-miterlimit="10" x1="107.192" y1="24.188" x2="108.718" y2="76.057"/>
<line fill="none" stroke="#9D9D9C" stroke-width="8" stroke-miterlimit="10" x1="88.651" y1="20.919" x2="95.642" y2="76.057"/>
<line fill="none" stroke="#9D9D9C" stroke-width="8" stroke-miterlimit="10" x1="70.144" y1="24.188" x2="83.648" y2="77.146"/>
<line fill="none" stroke="#9D9D9C" stroke-width="8" stroke-miterlimit="10" x1="51.62" y1="33.124" x2="70.144" y2="76.057"/>
<line fill="none" stroke="#9D9D9C" stroke-width="8" stroke-miterlimit="10" x1="35.71" y1="43.367" x2="51.62" y2="60.02"/>
<line fill="none" stroke="#9D9D9C" stroke-width="8" stroke-miterlimit="10" x1="23.942" y1="60.02" x2="42.459" y2="71.397"/>
<line fill="none" stroke="#9D9D9C" stroke-width="8" stroke-miterlimit="10" x1="16.097" y1="78.236" x2="36.248" y2="84.59"/>
<line fill="none" stroke="#9D9D9C" stroke-width="8" stroke-miterlimit="10" x1="14.571" y1="102.209" x2="50.53" y2="103.951"/>
<line fill="none" stroke="#9D9D9C" stroke-width="8" stroke-miterlimit="10" x1="18.058" y1="125.635" x2="49.004" y2="119.426"/>
<line fill="none" stroke="#9D9D9C" stroke-width="8" stroke-miterlimit="10" x1="26.172" y1="145.141" x2="51.62" y2="134.244"/>
<line fill="none" stroke="#9D9D9C" stroke-width="8" stroke-miterlimit="10" x1="40.723" y1="163.883" x2="58.593" y2="148.846"/>
<line fill="none" stroke="#9D9D9C" stroke-width="8" stroke-miterlimit="10" x1="60.119" y1="176.055" x2="71.016" y2="160.396"/>
<polyline fill="none" stroke="#9D9D9C" stroke-width="8" stroke-miterlimit="10" points="137.52,48.488 115.256,68.865 
	131.166,89.157 124.082,106.785 "/>
<line fill="none" stroke="#9D9D9C" stroke-width="8" stroke-miterlimit="10" x1="112.859" y1="95.235" x2="131.166" y2="89.157"/>
<path fill="#9D9D9C" stroke="#9D9D9C" stroke-width="3" stroke-miterlimit="10" d="M185.43,126.834l-2.613-49.688
	c0,0-29.639-16.127-40.537,16.345l17.217,38.029l6.756-2.07l-9.588-23.912l5.447-2.457l10.461,26.369L185.43,126.834z"/>
<circle fill="#FFFFFF" cx="167.342" cy="87.607" r="8.5"/>
<g>
	<g>
		<path fill="none" stroke="#9D9D9C" stroke-width="8" stroke-miterlimit="10" d="M87.796,174.561c0,0,0.688,0.198,1.948,0.438"/>
		<path fill="none" stroke="#9D9D9C" stroke-width="8" stroke-miterlimit="10" stroke-dasharray="2.6545,6.6363" d="M96.332,175.767
			c1.774,0.092,3.779,0.11,5.969-0.006"/>
		<path fill="none" stroke="#9D9D9C" stroke-width="8" stroke-miterlimit="10" stroke-dasharray="2.6545,6.6363,2.6545,6.6363" d="
			M105.609,175.492c4.447-0.488,9.478-1.555,14.792-3.599"/>
		<path fill="none" stroke="#9D9D9C" stroke-width="8" stroke-miterlimit="10" d="M123.471,170.615
			c0.601-0.271,1.204-0.553,1.811-0.85"/>
	</g>
</g>
</svg>
